PathFileType	4	(X/Y/Z)	s08c0203.trc
DataRate	CameraRate	NumFrames	NumMarkers	Units	OrigDataRate	OrigDataStartFrame	OrigNumFrames
200	200	7	50	mm	200	0	2000
Frame#	Time	racr			lacr			c7			jug			rlel			rdr			llel			ldr			s2			lic			ric			lasi			rasi			rpsi			lpsi			rgt			lgt			rth1			rth2			rth3			rth4			rlfc			rmfc			rsh1			rsh2			rsh3			rsh4			rlmal			rmmal			rcal			rtoe			rmt5			lth1			lth2			lth4			lth3			llfc			lmfc			llmal			lmmal			lcal			lmt5			lsh1			lsh2			lsh3			lsh4			ltoe			SBIKE			LBIKE			RBIKE			
		X1	Y1	Z1	X2	Y2	Z2	X3	Y3	Z3	X4	Y4	Z4	X5	Y5	Z5	X6	Y6	Z6	X7	Y7	Z7	X8	Y8	Z8	X9	Y9	Z9	X10	Y10	Z10	X11	Y11	Z11	X12	Y12	Z12	X13	Y13	Z13	X14	Y14	Z14	X15	Y15	Z15	X16	Y16	Z16	X17	Y17	Z17	X18	Y18	Z18	X19	Y19	Z19	X20	Y20	Z20	X21	Y21	Z21	X22	Y22	Z22	X23	Y23	Z23	X24	Y24	Z24	X25	Y25	Z25	X26	Y26	Z26	X27	Y27	Z27	X28	Y28	Z28	X29	Y29	Z29	X30	Y30	Z30	X31	Y31	Z31	X32	Y32	Z32	X33	Y33	Z33	X34	Y34	Z34	X35	Y35	Z35	X36	Y36	Z36	X37	Y37	Z37	X38	Y38	Z38	X39	Y39	Z39	X40	Y40	Z40	X41	Y41	Z41	X42	Y42	Z42	X43	Y43	Z43	X44	Y44	Z44	X45	Y45	Z45	X46	Y46	Z46	X47	Y47	Z47	X48	Y48	Z48	X49	Y49	Z49	X50	Y50	Z50	
0	0.0000	482.292486	1385.774158	-54.552453	496.699262	1391.778886	-413.471230	468.353722	1439.503307	-229.897486	450.383960	1284.776222	-219.504571	549.101147	1138.861113	17.650216	756.529185	928.385643	-66.959012	574.793861	1150.571692	-479.856335	757.609121	925.404335	-435.851383	-79.049580	1205.375726	-252.051200	108.009083	1172.599970	-395.625927	73.797477	1211.206638	-81.956600	118.755553	1111.482365	-354.774874	90.504599	1149.813813	-112.521536	-50.702286	1249.366214	-202.018783	-37.375947	1241.694701	-296.308887	-9.387117	1116.358702	-40.298174	4.793503	1061.173637	-416.696299	136.296434	1022.137223	-38.476148	222.244849	1001.508136	-40.347856	284.803882	940.206164	-47.302999	239.610084	1031.951114	-52.156421	379.019429	868.213316	-70.445119	360.684617	857.624709	-182.849327	320.001843	752.531930	-37.649106	315.783313	663.887813	-59.533810	271.151251	591.034114	-60.727165	342.236549	661.623844	-90.709044	232.280059	478.502223	-71.262223	243.593203	503.091550	-157.951394	161.946895	425.111785	-113.133444	448.470715	511.052900	-109.174983	373.019299	452.783225	-42.790052	25.462289	927.486959	-435.279189	56.054335	845.837012	-429.131526	91.061522	849.472279	-418.270448	40.104365	758.550194	-424.561168	47.218798	633.114428	-396.089199	38.323666	611.793267	-295.854584	-18.783685	216.080884	-398.681695	-5.124745	241.778816	-310.495659	-76.228503	161.231074	-357.552477	134.785380	195.039186	-419.410060	24.985566	505.250482	-426.283917	29.966763	421.665436	-405.720243	-1.992161	339.708624	-409.870181	47.248301	423.310996	-370.957482	196.703734	255.863181	-350.387180	-213.213003	914.964213	-236.748182	-8.890316	79.976679	-426.919717	-9.032838	80.155741	-28.387529	
1	0.0050	482.220566	1385.722226	-54.499202	496.676493	1391.757932	-413.570590	468.348029	1439.496592	-229.867799	450.331766	1284.767718	-219.529400	549.025466	1138.818499	17.738250	756.493331	928.373615	-66.914766	574.756242	1150.516123	-479.874513	757.571182	925.404918	-435.832357	-78.994189	1205.358268	-252.215419	108.064990	1172.552089	-395.644460	73.703246	1211.344854	-82.027223	118.051229	1111.752238	-355.001689	90.408433	1150.000213	-112.581400	-50.713060	1249.382875	-202.205524	-37.296075	1241.802881	-296.529486	-9.392080	1116.442779	-40.421077	4.954207	1061.074495	-416.773511	136.270326	1022.069500	-38.681831	222.210032	1001.561450	-40.597798	284.785736	940.196769	-47.630646	239.597176	1031.964164	-52.366647	378.955695	868.105706	-70.878345	360.605623	857.490686	-183.064327	319.937799	752.517908	-37.893348	315.720585	663.863770	-59.682290	271.102140	590.984729	-60.854915	342.189031	661.580538	-90.899429	232.239373	478.467135	-71.302397	243.544336	503.035075	-158.039307	161.924357	425.017472	-113.138771	448.401747	511.106908	-109.187117	372.967314	452.847595	-42.800311	25.603633	927.437499	-435.311703	56.177682	845.762057	-429.117090	91.163782	849.402225	-418.194057	40.169061	758.481708	-424.598980	47.310022	633.050011	-396.054947	38.278297	611.780705	-295.830846	-18.796188	216.065690	-398.683123	-5.100018	241.745922	-310.472813	-76.203371	161.224248	-357.534425	134.780295	195.085174	-419.430753	25.048624	505.214043	-426.276535	30.015254	421.624147	-405.697663	-1.956132	339.677233	-409.868736	47.259478	423.250981	-370.885081	196.681208	255.893595	-350.399860	-213.227634	914.948047	-236.799347	-8.888230	80.019520	-426.913796	-9.037828	80.163364	-28.415299	
2	0.0100	482.129234	1385.669590	-54.442351	496.661460	1391.719065	-413.636201	468.351604	1439.490420	-229.891032	450.279549	1284.774292	-219.561464	548.953656	1138.803309	17.821309	756.483278	928.347642	-66.896394	574.710277	1150.485155	-479.914650	757.578823	925.414618	-435.862710	-78.966686	1205.341295	-252.350327	108.151672	1172.554748	-395.677561	73.619168	1211.465417	-82.077142	118.125972	1111.680024	-355.040097	90.366724	1150.137168	-112.597276	-50.711985	1249.406561	-202.368960	-37.263158	1241.794690	-296.665179	-9.358881	1116.473475	-40.548471	5.130075	1061.001765	-416.845074	136.278203	1022.034533	-38.897311	222.233178	1001.526080	-40.817865	284.800760	940.173012	-47.930730	239.608887	1031.944843	-52.579697	378.893395	868.042959	-71.236765	360.493440	855.398754	-178.881743	319.869763	752.469167	-38.128742	315.686309	663.811583	-59.869066	271.062364	590.915136	-60.990710	342.144226	661.531288	-91.070331	232.224674	478.387954	-71.338122	243.512590	502.929003	-158.083089	161.939971	424.893279	-113.137173	448.357334	511.137621	-109.200562	372.975895	452.816986	-42.815195	25.780349	927.360848	-435.325529	56.343336	845.696929	-429.080170	91.297739	849.326590	-418.091221	40.307804	758.405252	-424.618771	47.448704	633.020637	-396.012223	38.300725	611.755532	-295.796753	-18.792139	216.051238	-398.666494	-5.141247	241.734135	-310.443863	-76.230001	161.173447	-357.557304	134.747876	195.109125	-419.418340	25.152845	505.182236	-426.266333	30.076622	421.594546	-405.678941	-1.904070	339.641120	-409.843906	47.317468	423.189080	-370.823097	196.657679	255.896450	-350.364147	-213.153195	914.937915	-236.754622	-8.882696	80.011262	-426.910445	-9.006613	80.159153	-28.415211	
3	0.0150	482.039834	1385.374091	-55.005199	494.240482	1391.595467	-414.345003	468.523605	1439.560043	-229.990190	450.261117	1284.784310	-219.545534	548.923129	1138.793012	17.875731	756.488801	928.260009	-67.066388	574.136337	1151.612764	-483.847170	757.780620	924.474320	-434.504126	-78.924781	1205.341979	-252.490556	109.101748	1171.921213	-393.513411	73.732032	1211.306273	-81.938554	121.062319	1114.682289	-361.565420	90.304338	1150.276352	-112.624258	-50.932500	1249.506456	-202.856180	-36.911204	1241.587267	-296.713128	-9.347433	1116.510155	-40.675461	5.310073	1060.958256	-416.926003	136.311948	1022.002468	-39.116280	222.090266	1001.595653	-40.856032	284.793333	940.116467	-48.217380	239.635456	1031.895814	-52.783214	378.832556	867.924268	-71.606951	360.443523	857.215583	-183.588526	319.951898	752.461532	-38.353157	315.045637	663.602561	-60.865572	270.206067	591.011234	-62.956175	342.109022	661.441554	-91.258333	232.225534	478.289877	-71.382143	242.531167	503.727203	-159.920123	162.045529	424.666161	-113.175199	448.354443	511.144371	-109.203579	372.991654	452.794108	-42.821367	25.978311	927.311773	-435.363151	56.570602	845.638421	-428.987684	103.546154	856.413615	-430.704751	40.033193	759.027480	-426.039076	46.663831	633.941028	-398.237184	38.412569	611.721222	-295.768003	-18.813099	216.059746	-398.658010	-5.170436	241.718286	-310.433926	-76.272053	161.175223	-357.562184	133.949999	197.045618	-422.191071	26.095424	508.212120	-431.799644	30.150871	421.527499	-405.585726	-1.866722	339.636180	-409.839789	47.376910	423.164186	-370.766157	196.585930	255.955844	-350.370887	-206.769516	915.153336	-231.396023	-8.882301	80.021089	-426.914160	-9.169875	79.687499	-29.238108	
4	0.0200	481.973020	1385.194965	-55.354258	491.008169	1391.438723	-415.255557	468.566165	1439.505373	-230.062707	450.339608	1284.450640	-219.507119	547.197034	1139.059829	16.663882	756.559131	928.066644	-67.014821	573.520047	1153.333930	-487.117065	758.044574	923.205143	-432.655871	-78.883876	1205.390519	-252.645086	109.596823	1172.272819	-395.596431	73.735390	1211.727516	-82.194767	120.553716	1115.856681	-364.136740	90.366124	1149.970702	-112.920881	-50.888395	1249.599718	-202.990378	-36.758090	1241.631823	-296.862263	-9.442542	1116.773047	-40.561910	5.450185	1060.763729	-417.024006	136.378336	1022.071844	-39.267974	221.621107	1001.919295	-42.022824	284.997763	940.089425	-48.836767	239.858222	1031.842823	-53.291980	377.451555	868.643533	-75.511852	361.159595	855.701710	-180.980254	320.106435	751.920891	-40.015361	313.159475	663.789897	-61.676300	268.478822	591.096914	-64.054234	340.678511	661.701041	-92.403691	232.382660	478.169487	-71.904014	242.839112	506.204546	-165.645977	162.103938	424.441376	-113.092268	448.406014	511.206986	-109.391000	372.985052	452.815543	-42.771413	24.065177	928.535625	-438.349573	56.803602	845.538753	-429.009781	103.747459	856.651429	-430.545607	38.700879	759.684621	-427.205573	51.323523	638.069747	-405.621555	38.657320	611.917257	-295.888533	-20.213733	216.944347	-399.690611	-7.401491	242.739270	-314.776160	-76.211897	161.227154	-357.542929	132.261854	197.884101	-423.155405	26.042306	509.605400	-434.596489	30.213485	421.528506	-405.384329	-1.787760	339.607257	-409.827616	47.363320	423.472581	-370.853787	194.289572	258.225706	-353.518937	-213.358418	914.989317	-236.708631	-10.753001	82.696247	-429.460975	-9.272260	79.377602	-29.774921	
5	0.0250	481.925905	1385.114721	-55.523698	488.559100	1391.299932	-415.926419	468.620627	1439.522107	-230.076264	450.365432	1284.437741	-219.561812	549.635266	1138.505419	19.502218	756.748632	928.184563	-66.850837	574.559542	1150.904412	-481.010282	758.238623	922.228269	-431.217211	-78.825488	1205.396105	-252.797858	108.027890	1171.449315	-391.884333	73.688077	1211.820150	-82.226703	120.296701	1116.555988	-365.662432	90.273620	1150.327929	-112.840209	-50.892593	1249.670352	-203.115214	-36.759714	1241.650872	-296.965868	-9.293242	1116.713521	-40.825076	5.617690	1060.918022	-417.099041	136.421584	1022.002760	-39.490824	222.558489	1001.132888	-41.392529	284.900966	940.032834	-49.061979	239.863912	1031.797833	-53.494130	378.276959	868.261219	-76.405587	366.714446	861.164881	-203.090162	320.287369	751.108254	-42.381594	317.441495	663.714933	-57.530899	271.012433	590.675244	-61.247240	342.618123	660.713758	-89.342988	232.364307	478.009283	-71.842690	243.594595	502.230402	-157.918156	161.902962	424.260877	-113.053460	448.428163	511.095746	-109.148958	373.050911	452.754988	-42.802329	26.552246	927.212545	-435.174787	57.062799	845.579615	-428.961325	104.244105	856.356930	-430.695221	41.159121	758.275597	-424.464154	48.189760	632.927961	-395.866094	38.883090	611.984923	-295.928454	-18.417629	215.096433	-397.113551	-5.350064	241.712989	-310.426671	-76.335491	161.148307	-357.565870	134.068516	196.470979	-421.011761	25.828029	505.219435	-426.382130	30.371758	421.472580	-405.360338	-1.723209	339.598436	-409.753237	47.531536	423.231043	-370.725899	196.413380	256.111443	-350.360884	-207.151852	915.473587	-231.672042	-8.791624	80.049921	-426.778946	-9.322689	79.205509	-30.068265	
6	0.0300	481.895631	1385.115989	-55.547689	488.487855	1391.230436	-415.916176	468.631089	1439.499219	-230.068863	450.368605	1284.430173	-219.561759	549.674708	1138.526137	19.408592	756.743411	928.146739	-66.878523	574.545223	1150.874875	-481.054489	758.230828	922.164878	-431.087443	-78.766563	1205.407967	-252.899657	107.965183	1171.368511	-391.600091	73.512542	1212.291566	-82.691550	120.240543	1116.876532	-366.350183	90.295239	1150.400440	-112.884787	-50.847814	1249.687731	-203.258837	-36.695735	1241.641825	-297.057112	-9.223440	1116.707222	-40.938361	5.775894	1060.928553	-417.154700	136.469662	1021.950534	-39.667295	222.618865	1001.024470	-41.596365	284.949826	939.938330	-49.370416	239.933359	1031.723459	-53.736914	379.561739	867.589568	-76.087383	366.607240	861.148019	-203.315898	320.448603	750.284568	-44.718095	317.494411	663.609318	-57.653252	271.037129	590.553143	-61.340466	342.605472	660.535562	-89.526289	232.415022	477.878108	-71.933474	243.632902	502.042010	-157.941356	162.244713	424.082400	-113.099462	448.458632	511.055384	-109.154890	373.124892	452.714255	-42.805010	26.835067	927.184940	-435.154488	57.375582	845.611654	-428.954502	104.539528	856.373177	-430.604328	41.514734	758.267960	-424.412960	48.509405	632.766669	-395.840803	39.115368	611.984775	-295.901887	-18.472528	215.123870	-397.109600	-5.447165	241.733016	-310.410920	-76.432306	161.137380	-357.588414	134.446373	195.396788	-419.361913	25.969041	504.986080	-426.037564	30.502921	421.444840	-405.360296	-1.673982	339.601113	-409.757972	47.633380	423.193311	-370.679007	196.272425	256.248830	-350.331472	-206.993437	915.621642	-231.651659	-8.740625	80.010565	-426.798915	-9.330086	79.147272	-30.160759	
